<?xml version="1.0" standalone="no"?>
<!DOCTYPE svg PUBLIC "-//W3C//DTD SVG 20010904//EN"
 "http://www.w3.org/TR/2001/REC-SVG-20010904/DTD/svg10.dtd">
<svg version="1.0" xmlns="http://www.w3.org/2000/svg"
 width="200.000000pt" height="64.000000pt" viewBox="0 0 200.000000 64.000000"
 preserveAspectRatio="xMidYMid meet">
<metadata>
Created by potrace 1.16, written by Peter Selinger 2001-2019
</metadata>
<g transform="translate(0.000000,64.000000) scale(0.100000,-0.100000)"
fill="#000000" stroke="none">
<path d="M334 442 c-5 -4 -41 -50 -78 -102 l-67 -95 52 -3 c36 -2 55 1 60 10
36 63 38 59 39 -80 l0 -133 53 3 52 3 1 160 c0 88 -2 179 -4 203 l-4 42 -47 0
c-25 0 -51 -4 -57 -8z"/>
<path d="M880 240 l0 -210 50 0 50 0 0 210 0 210 -50 0 -50 0 0 -210z"/>
<path d="M1632 243 l3 -208 48 -3 47 -3 0 38 c1 37 38 100 47 78 2 -5 16 -32
31 -60 l27 -50 58 -3 c31 -2 57 0 57 4 0 3 -22 43 -50 89 -27 46 -50 86 -50
90 0 5 17 29 37 54 20 25 41 52 46 59 7 9 -4 12 -49 12 l-59 0 -40 -59 c-22
-32 -43 -57 -47 -54 -5 2 -8 53 -8 114 l0 109 -50 0 -50 0 2 -207z"/>
<path d="M582 400 l-3 -40 59 0 c62 0 82 -11 82 -47 0 -33 -25 -41 -130 -40
l-95 0 0 -119 0 -119 80 -3 c44 -2 109 -1 145 3 55 6 69 12 97 40 47 47 46 94
-2 142 -34 34 -35 36 -16 49 26 18 34 59 20 101 -16 48 -70 72 -165 73 l-70 0
-2 -40z"/>
<path d="M1110 339 c-61 -25 -100 -85 -100 -155 0 -95 71 -159 176 -159 48 0
68 5 97 25 42 28 77 91 77 139 0 39 38 81 73 81 13 0 36 -9 50 -20 32 -25 117
-29 117 -5 0 27 -76 93 -115 101 -116 21 -225 -48 -225 -145 0 -42 -18 -77
-47 -90 -36 -16 -51 -14 -78 14 -68 67 13 185 91 131 18 -13 21 -11 42 25 l23
40 -35 14 c-40 17 -109 19 -146 4z"/>
<path d="M96 106 c-25 -36 -46 -67 -46 -70 0 -3 25 -6 55 -6 l54 0 39 58 c21
31 42 63 46 70 5 9 -7 12 -48 12 l-54 0 -46 -64z"/>
<path d="M1499 134 c-5 -7 -23 -17 -39 -24 -24 -10 -34 -9 -59 3 -30 15 -30
15 -51 -21 -20 -33 -20 -37 -5 -48 28 -21 94 -27 141 -14 55 16 143 107 107
111 -51 5 -86 2 -94 -7z"/>
</g>
</svg>
